<mxfile host="Electron" agent="Mozilla/5.0 (X11; Linux x86_64) AppleWebKit/537.36 (KHTML, like Gecko) draw.io/27.0.9 Chrome/134.0.6998.205 Electron/35.4.0 Safari/537.36" version="27.0.9">
  <diagram name="Page-1" id="pWvQHraaas_BnM1Vkm5G">
    <mxGraphModel dx="938" dy="581" grid="1" gridSize="10" guides="1" tooltips="1" connect="1" arrows="1" fold="1" page="1" pageScale="1" pageWidth="850" pageHeight="1100" math="0" shadow="0">
      <root>
        <mxCell id="0" />
        <mxCell id="1" parent="0" />
        <mxCell id="VOUNtthFStArULWsIAmo-20" value="" style="ellipse;whiteSpace=wrap;html=1;fillColor=none;strokeColor=#FF0000;" vertex="1" parent="1">
          <mxGeometry x="360" y="440" width="40" height="40" as="geometry" />
        </mxCell>
        <mxCell id="VOUNtthFStArULWsIAmo-1" value="" style="ellipse;whiteSpace=wrap;html=1;fillStyle=solid;gradientColor=none;fillColor=#000000;strokeColor=#FF0000;strokeWidth=1;" vertex="1" parent="1">
          <mxGeometry x="365" y="88" width="30" height="30" as="geometry" />
        </mxCell>
        <mxCell id="VOUNtthFStArULWsIAmo-6" style="edgeStyle=orthogonalEdgeStyle;rounded=0;orthogonalLoop=1;jettySize=auto;html=1;entryX=0.5;entryY=0;entryDx=0;entryDy=0;" edge="1" parent="1" source="VOUNtthFStArULWsIAmo-2" target="VOUNtthFStArULWsIAmo-5">
          <mxGeometry relative="1" as="geometry" />
        </mxCell>
        <mxCell id="VOUNtthFStArULWsIAmo-15" style="edgeStyle=orthogonalEdgeStyle;rounded=0;orthogonalLoop=1;jettySize=auto;html=1;entryX=0.5;entryY=0;entryDx=0;entryDy=0;" edge="1" parent="1" source="VOUNtthFStArULWsIAmo-2" target="VOUNtthFStArULWsIAmo-14">
          <mxGeometry relative="1" as="geometry" />
        </mxCell>
        <mxCell id="VOUNtthFStArULWsIAmo-2" value="ASSIGNED" style="rounded=1;whiteSpace=wrap;html=1;" vertex="1" parent="1">
          <mxGeometry x="320" y="160" width="120" height="40" as="geometry" />
        </mxCell>
        <mxCell id="VOUNtthFStArULWsIAmo-3" style="edgeStyle=orthogonalEdgeStyle;rounded=0;orthogonalLoop=1;jettySize=auto;html=1;" edge="1" parent="1" source="VOUNtthFStArULWsIAmo-1">
          <mxGeometry relative="1" as="geometry">
            <mxPoint x="380" y="160" as="targetPoint" />
          </mxGeometry>
        </mxCell>
        <mxCell id="VOUNtthFStArULWsIAmo-4" value="로봇 할당" style="text;html=1;align=center;verticalAlign=middle;resizable=0;points=[];autosize=1;strokeColor=none;fillColor=none;" vertex="1" parent="1">
          <mxGeometry x="375" y="122" width="70" height="30" as="geometry" />
        </mxCell>
        <mxCell id="VOUNtthFStArULWsIAmo-9" style="edgeStyle=orthogonalEdgeStyle;rounded=0;orthogonalLoop=1;jettySize=auto;html=1;entryX=0.5;entryY=0;entryDx=0;entryDy=0;" edge="1" parent="1" source="VOUNtthFStArULWsIAmo-5" target="VOUNtthFStArULWsIAmo-8">
          <mxGeometry relative="1" as="geometry" />
        </mxCell>
        <mxCell id="VOUNtthFStArULWsIAmo-12" style="edgeStyle=orthogonalEdgeStyle;rounded=0;orthogonalLoop=1;jettySize=auto;html=1;entryX=0.5;entryY=0;entryDx=0;entryDy=0;" edge="1" parent="1" source="VOUNtthFStArULWsIAmo-5" target="VOUNtthFStArULWsIAmo-11">
          <mxGeometry relative="1" as="geometry">
            <Array as="points">
              <mxPoint x="580" y="260" />
            </Array>
          </mxGeometry>
        </mxCell>
        <mxCell id="VOUNtthFStArULWsIAmo-16" style="edgeStyle=orthogonalEdgeStyle;rounded=0;orthogonalLoop=1;jettySize=auto;html=1;entryX=0.5;entryY=0;entryDx=0;entryDy=0;" edge="1" parent="1" source="VOUNtthFStArULWsIAmo-5" target="VOUNtthFStArULWsIAmo-14">
          <mxGeometry relative="1" as="geometry">
            <Array as="points">
              <mxPoint x="180" y="260" />
            </Array>
          </mxGeometry>
        </mxCell>
        <mxCell id="VOUNtthFStArULWsIAmo-5" value="MOVING" style="rounded=1;whiteSpace=wrap;html=1;" vertex="1" parent="1">
          <mxGeometry x="320" y="240" width="120" height="40" as="geometry" />
        </mxCell>
        <mxCell id="VOUNtthFStArULWsIAmo-7" value="호출 위치로 출발" style="text;html=1;align=center;verticalAlign=middle;resizable=0;points=[];autosize=1;strokeColor=none;fillColor=none;" vertex="1" parent="1">
          <mxGeometry x="374" y="204" width="110" height="30" as="geometry" />
        </mxCell>
        <mxCell id="VOUNtthFStArULWsIAmo-21" style="edgeStyle=orthogonalEdgeStyle;rounded=0;orthogonalLoop=1;jettySize=auto;html=1;entryX=0.5;entryY=0;entryDx=0;entryDy=0;" edge="1" parent="1" source="VOUNtthFStArULWsIAmo-8" target="VOUNtthFStArULWsIAmo-20">
          <mxGeometry relative="1" as="geometry" />
        </mxCell>
        <mxCell id="VOUNtthFStArULWsIAmo-8" value="ARRIVED" style="rounded=1;whiteSpace=wrap;html=1;" vertex="1" parent="1">
          <mxGeometry x="320" y="320" width="120" height="40" as="geometry" />
        </mxCell>
        <mxCell id="VOUNtthFStArULWsIAmo-10" value="호출 위치에 도착" style="text;html=1;align=center;verticalAlign=middle;resizable=0;points=[];autosize=1;strokeColor=none;fillColor=none;" vertex="1" parent="1">
          <mxGeometry x="374" y="283" width="110" height="30" as="geometry" />
        </mxCell>
        <mxCell id="VOUNtthFStArULWsIAmo-22" style="edgeStyle=orthogonalEdgeStyle;rounded=0;orthogonalLoop=1;jettySize=auto;html=1;entryX=0.5;entryY=0;entryDx=0;entryDy=0;exitX=0.5;exitY=1;exitDx=0;exitDy=0;" edge="1" parent="1" source="VOUNtthFStArULWsIAmo-11" target="VOUNtthFStArULWsIAmo-20">
          <mxGeometry relative="1" as="geometry">
            <Array as="points">
              <mxPoint x="580" y="380" />
              <mxPoint x="380" y="380" />
            </Array>
          </mxGeometry>
        </mxCell>
        <mxCell id="VOUNtthFStArULWsIAmo-11" value="ERROR" style="rounded=1;whiteSpace=wrap;html=1;" vertex="1" parent="1">
          <mxGeometry x="520" y="320" width="120" height="40" as="geometry" />
        </mxCell>
        <mxCell id="VOUNtthFStArULWsIAmo-13" value="호출 위치 도착 실패" style="text;html=1;align=center;verticalAlign=middle;resizable=0;points=[];autosize=1;strokeColor=none;fillColor=none;" vertex="1" parent="1">
          <mxGeometry x="460" y="235" width="120" height="30" as="geometry" />
        </mxCell>
        <mxCell id="VOUNtthFStArULWsIAmo-24" style="edgeStyle=orthogonalEdgeStyle;rounded=0;orthogonalLoop=1;jettySize=auto;html=1;entryX=0.5;entryY=0;entryDx=0;entryDy=0;" edge="1" parent="1" source="VOUNtthFStArULWsIAmo-14" target="VOUNtthFStArULWsIAmo-20">
          <mxGeometry relative="1" as="geometry">
            <mxPoint x="380" y="400" as="targetPoint" />
            <Array as="points">
              <mxPoint x="180" y="380" />
              <mxPoint x="380" y="380" />
            </Array>
          </mxGeometry>
        </mxCell>
        <mxCell id="VOUNtthFStArULWsIAmo-14" value="CANCLED" style="rounded=1;whiteSpace=wrap;html=1;" vertex="1" parent="1">
          <mxGeometry x="120" y="320" width="120" height="40" as="geometry" />
        </mxCell>
        <mxCell id="VOUNtthFStArULWsIAmo-17" value="호출 취소" style="text;html=1;align=center;verticalAlign=middle;resizable=0;points=[];autosize=1;strokeColor=none;fillColor=none;" vertex="1" parent="1">
          <mxGeometry x="250" y="155" width="70" height="30" as="geometry" />
        </mxCell>
        <mxCell id="VOUNtthFStArULWsIAmo-18" value="호출 취소" style="text;html=1;align=center;verticalAlign=middle;resizable=0;points=[];autosize=1;strokeColor=none;fillColor=none;" vertex="1" parent="1">
          <mxGeometry x="250" y="235" width="70" height="30" as="geometry" />
        </mxCell>
        <mxCell id="VOUNtthFStArULWsIAmo-19" value="" style="ellipse;whiteSpace=wrap;html=1;fillStyle=solid;gradientColor=none;fillColor=#000000;strokeColor=#FF0000;strokeWidth=1;" vertex="1" parent="1">
          <mxGeometry x="365" y="445" width="30" height="30" as="geometry" />
        </mxCell>
        <mxCell id="VOUNtthFStArULWsIAmo-25" value="작업 종료" style="text;html=1;align=center;verticalAlign=middle;resizable=0;points=[];autosize=1;strokeColor=none;fillColor=none;" vertex="1" parent="1">
          <mxGeometry x="373" y="394" width="70" height="30" as="geometry" />
        </mxCell>
      </root>
    </mxGraphModel>
  </diagram>
</mxfile>
